<?xml version="1.0" encoding="UTF-8" standalone="no"?>
<!-- Created with Inkscape (http://www.inkscape.org/) -->

<svg
   version="1.1"
   id="svg2"
   width="6666.6665"
   height="4000"
   viewBox="0 0 6666.6665 4000"
   sodipodi:docname="vecteezy_light-gray-abstract-with-white-and-gray-diagonal-rounded_7718244.eps"
   xmlns:inkscape="http://www.inkscape.org/namespaces/inkscape"
   xmlns:sodipodi="http://sodipodi.sourceforge.net/DTD/sodipodi-0.dtd"
   xmlns="http://www.w3.org/2000/svg"
   xmlns:svg="http://www.w3.org/2000/svg">
  <defs
     id="defs6" />
  <sodipodi:namedview
     id="namedview4"
     pagecolor="#ffffff"
     bordercolor="#000000"
     borderopacity="0.25"
     inkscape:showpageshadow="2"
     inkscape:pageopacity="0.0"
     inkscape:pagecheckerboard="0"
     inkscape:deskcolor="#d1d1d1" />
  <g
     id="g8"
     inkscape:groupmode="layer"
     inkscape:label="ink_ext_XXXXXX"
     transform="matrix(1.3333333,0,0,-1.3333333,0,4000)">
    <g
       id="g10"
       transform="scale(0.1)">
      <path
         d="m 42549.8,27922.4 -151.8,-151.8 c -108.2,-108.3 -108.2,-283.8 0,-392.1 v 0 c 108.3,-108.2 283.8,-108.2 392.1,0 l 3180.8,3180.8 c 312,312 817.8,312 1129.8,0 v 0 c 312,-312 312,-817.8 0,-1129.8 l -5408.8,-5408.8 c -312,-312 -817.8,-312 -1129.8,0 v 0 c -312,312 -312,817.8 0,1129.8 l 1043.4,1043.4 c 108.2,108.3 108.2,283.8 0,392 v 0 c -108.3,108.3 -283.8,108.3 -392.1,0 l -2618,-2617.9 c -178.1,-178.1 -466.9,-178.1 -645,0 v 0 c -178.1,178.1 -178.1,466.9 0,645 l 3954.4,3954.4 c 178.1,178.1 466.9,178.1 645,0 v 0 c 178.1,-178.2 178.1,-466.9 0,-645"
         style="fill:#959595;fill-opacity:1;fill-rule:nonzero;stroke:none"
         id="path14" />
      <path
         d="m 35273.4,3581.1 151.8,151.7 c 108.3,108.3 108.3,283.8 0,392.1 v 0 c -108.3,108.3 -283.8,108.3 -392.1,0 L 31852.3,944.102 c -312,-312 -817.8,-312 -1129.8,0 v 0 c -312,311.998 -312,817.798 0,1129.798 l 5408.8,5408.9 c 312,311.9 817.9,311.9 1129.9,0 v 0 c 311.9,-312 311.9,-817.9 0,-1129.9 L 36217.8,5309.5 c -108.3,-108.2 -108.3,-283.8 0,-392 v 0 c 108.2,-108.3 283.8,-108.3 392,0 l 2618,2617.9 c 178.1,178.2 466.9,178.2 645,0 v 0 c 178.1,-178.1 178.1,-466.8 0,-645 L 35918.4,2936.1 c -178.1,-178.2 -466.9,-178.2 -645,0 v 0 c -178.1,178.1 -178.1,466.8 0,645"
         style="fill:#ccccc9;fill-opacity:1;fill-rule:nonzero;stroke:none"
         id="path16" />
      <path
         d="m 45079.4,17874.4 v 0 c 332,-331.9 870.2,-331.9 1202.1,0 l 5579.1,5579.1 c 331.9,331.9 331.9,870.1 0,1202.1 v 0 c -332,331.9 -870.2,331.9 -1202.1,0 l -5579.1,-5579.1 c -331.9,-331.9 -331.9,-870.1 0,-1202.1"
         style="fill:#ccccc9;fill-opacity:1;fill-rule:nonzero;stroke:none"
         id="path18" />
      <path
         d="m 45219.4,24024.4 v 0 c 332,-331.9 870.2,-331.9 1202.1,0 l 5579.1,5579.1 c 331.9,331.9 331.9,870.1 0,1202.1 v 0 c -332,331.9 -870.2,331.9 -1202.1,0 l -5579.1,-5579.1 c -331.9,-331.9 -331.9,-870.1 0,-1202.1"
         style="fill:#ccccc9;fill-opacity:1;fill-rule:nonzero;stroke:none"
         id="path20" />
      <path
         d="m 17359.4,-3835.6 v 0 c 332,-331.9 870.2,-331.9 1202.1,0 l 5579.1,5579.1 c 331.9,331.9 331.9,870.1 0,1202.1 v 0 c -332,331.9 -870.2,331.9 -1202.1,0 l -5579.1,-5579.1 c -331.9,-331.9 -331.9,-870.1 0,-1202.1"
         style="fill:#ccccc9;fill-opacity:1;fill-rule:nonzero;stroke:none"
         id="path22" />
      <path
         d="m 35999.4,-955.602 v 0 c 332,-331.898 870.2,-331.898 1202.1,0 L 42780.6,4623.5 c 331.9,331.9 331.9,870.1 0,1202.1 v 0 c -332,331.9 -870.2,331.9 -1202.1,0 L 35999.4,246.5 c -331.9,-331.8984 -331.9,-870.102 0,-1202.102"
         style="fill:#ccccc9;fill-opacity:1;fill-rule:nonzero;stroke:none"
         id="path24" />
      <path
         d="m 15400.2,-5156.3 v 0 c 790.7,-790.8 2072.7,-790.8 2863.5,0 L 31643.2,8223.2 c 790.8,790.8 790.8,2072.8 0,2863.6 v 0 c -790.7,790.7 -2072.8,790.7 -2863.5,0 L 15400.2,-2292.8 c -790.8,-790.7 -790.8,-2072.8 0,-2863.5 z"
         style="fill:none;stroke:#b1b1b0;stroke-width:100;stroke-linecap:butt;stroke-linejoin:miter;stroke-miterlimit:10;stroke-dasharray:none;stroke-opacity:1"
         id="path26" />
      <path
         d="m 32596.9,-2603.1 v 0 c 394.9,-394.9 1035.1,-394.9 1430,0 L 48840,12210 c 394.9,394.9 394.9,1035.1 0,1430 v 0 c -394.9,394.9 -1035.1,394.9 -1430,0 L 32596.9,-1173.1 c -394.9,-394.9 -394.9,-1035.1 0,-1430 z"
         style="fill:none;stroke:#b1b1b0;stroke-width:100;stroke-linecap:butt;stroke-linejoin:miter;stroke-miterlimit:10;stroke-dasharray:none;stroke-opacity:1"
         id="path28" />
      <path
         d="m 38930.1,17093.7 h 0.1 c 790.7,-790.8 2072.7,-790.8 2863.5,0 l 13379.5,13379.5 c 790.8,790.8 790.8,2072.8 0,2863.6 v 0 c -790.7,790.7 -2072.8,790.7 -2863.5,0 L 38930.1,19957.2 c -790.7,-790.7 -790.7,-2072.8 0,-2863.5 z"
         style="fill:none;stroke:#ccccc9;stroke-width:100;stroke-linecap:butt;stroke-linejoin:miter;stroke-miterlimit:10;stroke-dasharray:none;stroke-opacity:1"
         id="path30" />
      <path
         d="M 17290,-3920 56125,34915"
         style="fill:none;stroke:#ccccc9;stroke-width:100;stroke-linecap:butt;stroke-linejoin:miter;stroke-miterlimit:10;stroke-dasharray:none;stroke-opacity:1"
         id="path32" />
      <path
         d="M 28510,-10950 67345,27885"
         style="fill:none;stroke:#b1b1b0;stroke-width:100;stroke-linecap:butt;stroke-linejoin:miter;stroke-miterlimit:10;stroke-dasharray:none;stroke-opacity:1"
         id="path34" />
      <path
         d="M 29890,-12210 68725,26625"
         style="fill:none;stroke:#b1b1b0;stroke-width:100;stroke-linecap:butt;stroke-linejoin:miter;stroke-miterlimit:10;stroke-dasharray:none;stroke-opacity:1"
         id="path36" />
      <path
         d="m 26005.2,11508.7 v 0 c 202.5,-202.6 530.9,-202.6 733.5,0 l 7104.5,7104.5 c 202.6,202.6 202.6,531 0,733.6 v 0 c -202.5,202.5 -531,202.5 -733.5,0 l -7104.5,-7104.6 c -202.6,-202.5 -202.6,-530.9 0,-733.5 z"
         style="fill:none;stroke:#b1b1b0;stroke-width:100;stroke-linecap:butt;stroke-linejoin:miter;stroke-miterlimit:10;stroke-dasharray:none;stroke-opacity:1"
         id="path38" />
      <path
         d="m 29370.1,19723.7 h 0.1 c 790.7,-790.8 2072.7,-790.8 2863.5,0 l 13379.5,13379.5 c 790.8,790.8 790.8,2072.8 0,2863.6 v 0 c -790.7,790.7 -2072.8,790.7 -2863.5,0 L 29370.1,22587.2 c -790.7,-790.7 -790.7,-2072.8 0,-2863.5 z"
         style="fill:none;stroke:#ccccc9;stroke-width:100;stroke-linecap:butt;stroke-linejoin:miter;stroke-miterlimit:10;stroke-dasharray:none;stroke-opacity:1"
         id="path40" />
      <path
         d="m 26191.2,16542.7 v 0 c 215,-215 563.5,-215 778.5,0 l 11064.6,11064.5 c 215,215 215,563.5 0,778.5 v 0 c -215,215 -563.6,215 -778.6,0 L 26191.2,17321.2 c -215,-215 -215,-563.6 0,-778.5"
         style="fill:#ccccc9;fill-opacity:1;fill-rule:nonzero;stroke:none"
         id="path42" />
      <path
         d="m 21289.4,9044.4 v 0 c 37.3,-37.3 97.7,-37.3 135,0 l 2138.1,2138.1 c 37.3,37.3 37.3,97.7 0,135 v 0 c -37.3,37.3 -97.7,37.3 -135,0 L 21289.4,9179.4 c -37.3,-37.3 -37.3,-97.7 0,-135"
         style="fill:#ccccc9;fill-opacity:1;fill-rule:nonzero;stroke:none"
         id="path44" />
      <path
         d="m 22979.4,9724.4 v 0 c 37.3,-37.3 97.7,-37.3 135,0 l 2138.1,2138.1 c 37.3,37.3 37.3,97.7 0,135 v 0 c -37.3,37.3 -97.7,37.3 -135,0 L 22979.4,9859.4 c -37.3,-37.3 -37.3,-97.7 0,-135"
         style="fill:#ccccc9;fill-opacity:1;fill-rule:nonzero;stroke:none"
         id="path46" />
      <path
         d="m 22389.4,8034.4 v 0 c 37.3,-37.3 97.7,-37.3 135,0 l 2138.1,2138.1 c 37.3,37.3 37.3,97.7 0,135 v 0 c -37.3,37.3 -97.7,37.3 -135,0 L 22389.4,8169.4 c -37.3,-37.3 -37.3,-97.7 0,-135"
         style="fill:#ccccc9;fill-opacity:1;fill-rule:nonzero;stroke:none"
         id="path48" />
      <path
         d="m 42551.2,9082.7 v 0 c 215,-215 563.5,-215 778.5,0 l 11064.6,11064.5 c 215,215 215,563.5 0,778.5 v 0 c -215,215 -563.6,215 -778.6,0 L 42551.2,9861.2 c -215,-215 -215,-563.6 0,-778.5"
         style="fill:#959595;fill-opacity:1;fill-rule:nonzero;stroke:none"
         id="path50" />
      <path
         d="m 43621.2,-5007.3 v 0 c 215,-215 563.5,-215 778.5,0 L 55464.3,6057.2 c 215,215 215,563.5 0,778.5 v 0 c -215,215 -563.6,215 -778.6,0 L 43621.2,-4228.8 c -215,-215 -215,-563.6 0,-778.5"
         style="fill:#ccccc9;fill-opacity:1;fill-rule:nonzero;stroke:none"
         id="path52" />
      <path
         d="m 25960,15630 c 0,-375.6 -304.4,-680 -680,-680 -375.6,0 -680,304.4 -680,680 0,375.6 304.4,680 680,680 375.6,0 680,-304.4 680,-680"
         style="fill:#ccccc9;fill-opacity:1;fill-rule:nonzero;stroke:none"
         id="path54" />
      <path
         d="m 38390,15700 c 0,-375.6 -304.4,-680 -680,-680 -375.6,0 -680,304.4 -680,680 0,375.6 304.4,680 680,680 375.6,0 680,-304.4 680,-680"
         style="fill:#ccccc9;fill-opacity:1;fill-rule:nonzero;stroke:none"
         id="path56" />
      <path
         d="m 33810,12570 c 0,-375.6 -304.4,-680 -680,-680 -375.6,0 -680,304.4 -680,680 0,375.6 304.4,680 680,680 375.6,0 680,-304.4 680,-680"
         style="fill:#ccccc9;fill-opacity:1;fill-rule:nonzero;stroke:none"
         id="path58" />
      <path
         d="m 49940,4345 c 0,-549.5 -445.5,-995 -995,-995 -549.5,0 -995,445.5 -995,995 0,549.5 445.5,995 995,995 549.5,0 995,-445.5 995,-995"
         style="fill:#ccccc9;fill-opacity:1;fill-rule:nonzero;stroke:none"
         id="path60" />
      <path
         d="m 47050,1155 c 0,-549.5 -445.5,-995 -995,-995 -549.5,0 -995,445.5 -995,995 0,549.5 445.5,995 995,995 549.5,0 995,-445.5 995,-995"
         style="fill:#ccccc9;fill-opacity:1;fill-rule:nonzero;stroke:none"
         id="path62" />
      <path
         d="m 36560,14435 c 0,-549.5 -445.5,-995 -995,-995 -549.5,0 -995,445.5 -995,995 0,549.5 445.5,995 995,995 549.5,0 995,-445.5 995,-995"
         style="fill:#959595;fill-opacity:1;fill-rule:nonzero;stroke:none"
         id="path64" />
      <path
         d="m 35900,20425 c 0,-549.5 -445.5,-995 -995,-995 -549.5,0 -995,445.5 -995,995 0,549.5 445.5,995 995,995 549.5,0 995,-445.5 995,-995 z"
         style="fill:none;stroke:#b1b1b0;stroke-width:100;stroke-linecap:butt;stroke-linejoin:miter;stroke-miterlimit:10;stroke-dasharray:none;stroke-opacity:1"
         id="path66" />
    </g>
  </g>
</svg>
